<svg width="425" height="319" viewBox="0 0 425 319" fill="none" xmlns="http://www.w3.org/2000/svg">
<path fill-rule="evenodd" clip-rule="evenodd" d="M306.282 234.622C304.407 236.792 301.639 238.402 299.515 240.386C297.284 242.47 294.863 244.291 292.642 246.349C282.841 234.362 269.415 227.011 257.785 217.063C252.271 212.347 248.208 205.95 245.236 199.385C243.712 196.019 242.586 192.555 241.704 188.969C241.308 187.354 240.92 185.745 240.66 184.108C240.346 182.125 240.265 181.956 238.928 180.409C238.353 179.743 237.239 177.798 236.112 178.012C235.163 178.193 233.429 181.082 232.83 181.795C229.948 185.227 227.154 188.764 224.119 192.063C219.477 197.111 215.251 202.079 210.94 207.43C202.123 218.377 192.612 228.682 183.015 238.982C182.303 239.746 180.643 241.986 179.621 242.287C178.377 242.653 176.357 241.127 175.104 240.273C172.082 238.214 169.699 235.665 167.115 233.113C162.073 228.132 158.658 221.14 156.362 214.487C154.987 210.505 154.093 206.377 152.674 202.409C152.082 200.755 150.742 198.722 151.422 197.282C151.625 196.852 152.915 195.711 153.37 195.624C153.907 195.52 154.804 196.259 154.991 196.207C156.776 195.719 155.786 193.849 156.847 192.843C157.449 192.272 160.51 192.356 161.424 192.042C164.765 190.895 167.763 188.707 170.922 187.401C184.146 181.933 197.532 176.614 208.948 167.685C211.909 165.37 213.876 163.63 217.409 162.133C220.979 160.621 224.568 159.272 228.211 157.952C231.425 156.788 234.657 155.696 237.977 154.862C241.567 153.959 246.66 152.815 250.247 153.977C257.292 156.26 259.566 162.069 262.372 168.197C266.167 176.487 270.756 184.333 275.731 191.964C285.302 206.646 296.942 219.821 306.282 234.622Z" fill="#5A3092"/>
<path fill-rule="evenodd" clip-rule="evenodd" d="M94.1303 104.822C93.7426 104.625 90.7161 105.858 90.2081 106.046C88.179 106.8 86.2678 108.052 84.3561 109.07C85.8212 110.855 87.2867 112.64 88.7514 114.424C90.1874 110.899 92.0331 107.99 94.1303 104.822ZM95.1293 126.755C94.6308 126.811 98.8393 136.933 99.3307 138.069C101.119 142.202 102.997 146.295 104.809 150.418C106.564 154.414 108.792 158.089 111.035 161.822C112.954 165.014 114.928 169.967 117.823 172.332C115.995 164.216 116.236 154.885 110.993 148.071C105.559 141.007 100.186 134.109 95.1293 126.755ZM306.282 234.983C298.161 222.113 287.995 210.727 279.527 198.087C274.785 191.009 270.169 183.84 266.178 176.307C263.275 170.826 261.47 163.007 256.986 158.817C255.01 156.971 252.899 155.165 250.247 154.338C246.618 153.206 241.622 154.328 237.977 155.222C231.184 156.889 224.548 159.478 218.114 162.196C211.587 164.953 206.019 169.906 200.122 173.885C193.796 178.155 186.949 181.264 179.862 183.987C173.691 186.357 168.201 189.76 162.063 192.146C160.84 192.622 158.344 192.552 157.318 193.172C156.213 193.84 156.648 195.811 155.306 196.538C154.7 196.866 154.499 195.677 154.034 195.696C153.465 195.72 152.947 196.388 152.399 196.811C150.168 198.533 151.535 199.682 152.418 202.052C155.297 209.774 156.844 217.631 160.887 224.922C164.21 230.914 168.967 236.284 174.568 240.251C175.42 240.855 178.197 243.194 179.197 243.039C180.097 242.899 181.928 240.504 182.55 239.854C185.37 236.902 187.948 233.727 190.767 230.771C195.122 226.202 199.315 221.511 203.542 216.88C208.448 211.504 212.791 205.413 217.21 199.669C219.243 197.026 221.86 194.874 224.119 192.424C227.158 189.129 229.948 185.587 232.83 182.156C233.702 181.117 235.163 178.461 236.518 178.492C237.467 178.514 239.142 180.752 239.638 181.453C241.484 184.059 241.476 188.766 242.394 192.02C244.635 199.953 248.674 207.702 254.215 213.824C259.724 219.912 266.781 224.241 273.297 229.135C280.356 234.436 287.044 239.862 292.642 246.71C294.863 244.652 297.284 242.83 299.515 240.747C301.639 238.762 304.408 237.153 306.282 234.983ZM201.747 271.394C203.325 271.41 205.999 272.382 207.411 271.796C203.222 267.157 199.375 263.177 194.074 259.777C188.574 256.249 183.091 252.752 177.749 248.989C166.982 241.405 159.064 232.412 154.566 219.782C153.408 216.53 152.633 213.119 151.784 209.775C151.327 207.975 150.418 199.551 148.875 198.824C147.96 198.393 141.079 203.233 139.989 203.836C137.44 205.247 134.881 206.341 132.245 207.445C126.581 209.819 120.74 211.63 114.733 213.141C107.531 214.953 102.625 211.955 98.1636 206.29C93.1018 199.862 88.8954 192.61 84.2673 185.861C82.1626 182.791 80.419 179.726 78.8647 176.34C77.8474 174.124 73.8128 168.147 75.207 165.786C79.1843 168.817 80.6153 174.842 83.3247 178.9C86.7015 183.957 90.507 188.725 93.9012 193.778C96.7554 198.026 99.6673 203.174 103.884 206.229C107.593 208.915 111.117 208.089 115.109 206.882C119.947 205.419 124.962 204.698 129.703 202.883C134.834 200.919 139.689 198.134 144.695 195.863C147.029 194.804 149.824 194.202 152.023 192.881C153.918 191.744 153.636 191.143 153.775 188.721C153.937 185.896 154.125 183.068 154.249 180.24C154.333 178.339 153.307 175.763 154.003 174.344C148.32 175.33 142.765 176.651 137.121 177.82C134.031 178.459 131.052 179.25 127.93 179.753C126.74 179.944 125.114 179.939 124.048 180.458C123.198 180.214 122.765 180.369 122.748 180.923C122.708 181.225 122.643 181.521 122.555 181.813C120.812 182.607 119.799 180.905 118.287 179.273C116.422 177.258 115.025 174.989 113.657 172.622C110.597 167.33 107.071 162.352 104.239 156.91C101.354 151.363 99.0099 145.424 96.5632 139.669C94.3187 134.388 92.8814 128.678 90.4011 123.523C89.2942 121.222 87.8914 119.319 86.2532 117.375C84.9014 115.771 82.8217 112.311 80.8029 111.574C80.2692 111.379 78.8713 111.706 78.265 111.663C77.0564 111.577 75.9794 111.133 74.7425 111.23C72.0647 111.44 69.1453 113.134 67.0054 114.624C68.3883 115.858 71.8476 117.357 69.3628 119.579C66.9514 121.737 65.6196 117.867 64.6994 116.171C60.3664 119.732 60.9927 124.642 60.4922 129.674C60.2307 132.3 59.543 134.887 59.0993 137.475C58.7797 139.337 59.0038 141.263 58.9125 143.164C58.6797 147.995 58.1945 152.619 58.2182 157.383C58.2431 162.474 58.5896 167.391 58.9968 172.446C59.682 180.956 61.2521 189.469 62.5985 197.911C63.3559 202.656 64.3927 207.267 65.3992 211.936C66.5414 217.235 68.6543 222.253 69.8393 227.538C71.0466 226.002 71.9547 225.995 73.9075 226.199C75.4095 226.355 76.4185 225.997 76.3305 228.084C76.2736 229.437 75.0808 230.471 73.761 230.707C72.0398 231.015 71.455 230.155 70.5681 228.851C70.3606 231.321 72.0207 233.904 72.6773 236.317C73.2986 238.604 73.7103 240.845 74.7546 243.034C75.7735 245.169 76.6459 247.275 77.6769 249.389C78.1517 250.362 78.5958 251.35 79.076 252.32C79.3188 252.812 79.6047 253.489 79.967 253.903C80.817 254.874 80.6817 254.403 81.6766 254.956C83.8439 256.161 83.03 255.861 83.0807 258.349C83.1301 260.803 84.3876 262.606 86.4043 263.986C90.6829 266.913 94.9031 267.728 99.7673 269.207C104.3 270.585 109.073 271.767 113.872 271.74C119.75 271.708 125.55 270.936 131.428 270.858C137.912 270.772 144.459 270.807 150.93 271.032C153.596 271.124 156.072 271.243 158.646 271.924C161.634 272.716 164.525 272.402 167.606 272.282C174.178 272.026 180.976 271.517 187.462 271.471C192.132 271.438 197.059 271.112 201.747 271.394ZM372.157 273.943C373.325 274.561 375.944 274.307 377.118 274.136C379.187 273.834 379.409 273.013 380.722 271.167C382.981 267.987 384.816 264.942 386.145 261.259C388.689 254.21 389.728 246.998 390.845 239.624C392.086 231.431 389.819 222.938 389.008 214.8C388.822 212.933 388.567 211.083 388.273 209.23C388.096 208.122 388.05 204.354 387.322 203.395C385.922 201.552 379.414 203.038 376.856 203.205C369.714 203.672 362.525 203.781 355.386 203.862C351.58 203.905 347.752 204.065 343.984 204.094C342.253 204.108 340.561 204.022 338.824 203.854C338.243 203.797 337.676 203.664 337.09 203.631C335.087 203.52 335.237 203.23 334.719 205.005C333.812 208.116 334.51 212.074 334.272 215.304C333.953 219.618 333.781 223.994 333.86 228.318C333.933 232.314 333.797 236.301 333.946 240.305C334.008 241.964 334.189 243.316 334.626 244.899C335.12 246.69 335.664 250.874 336.895 252.113C337.035 252.254 338.081 251.925 338.359 252.276C338.787 252.818 338.708 253.963 339.002 254.312C339.953 255.445 341.918 255.534 343.344 256.043C347.256 257.439 350.844 258.955 354.531 260.837C357.825 262.519 363.136 263.951 365.117 267.269C366.025 268.79 366.147 270.795 366.982 272.365C367.933 274.152 366.031 273.218 368.36 273.943C369.409 274.27 371.081 273.943 372.157 273.943ZM24.8706 253.724C24.5743 257.852 22.2505 261.784 21.4416 265.843C21.063 267.744 20.421 269.612 19.9761 271.502C19.5494 273.315 18.0079 275.461 18.164 277.255C23.8534 275.226 29.6162 274.716 35.5624 274.169C41.1982 273.65 47.152 273.444 52.7405 273.441C58.4352 273.438 64.5243 272.882 70.3879 272.795C76.5201 272.705 82.7449 272.546 88.7883 271.91C85.6282 269.568 81.6741 267.368 79.3408 264.109C76.804 260.566 75.4867 256.128 73.2546 252.389C68.7755 244.887 65.9279 235.579 63.5801 227.151C58.8399 210.136 53.5428 193.436 52.2661 175.788C49.8365 177.033 47.9078 181.865 46.6913 184.27C45.1386 187.342 44.3256 190.672 43.3162 193.936C41.2377 200.661 39.7992 207.633 37.2541 214.293C32.3899 227.025 29.2634 240.744 24.8706 253.724ZM333.706 154.561C334.758 162.17 336.965 169.878 337.049 177.58C337.068 179.274 336.781 181.156 337.134 182.826C337.511 184.61 338.736 186.186 339.444 187.882C340.567 190.572 343.411 196.087 340.668 198.367C340.613 196.204 338.634 193.456 337.638 191.564C336.136 188.714 334.162 186.107 332.534 183.327C329.126 177.508 325.307 171.814 320.914 166.684C316.636 161.687 311.705 157.255 307.169 152.497C305.806 151.067 294.871 137.308 294.436 137.5C297.828 150.59 303.594 161.979 311.484 172.939C315.353 178.312 319.996 181.847 324.705 186.399C328.627 190.189 336.018 194.242 334.662 200.453C340.793 199.864 346.883 198.921 353.069 198.921C352.052 191.085 351.273 183.374 349.457 175.667C347.395 166.915 345.998 157.902 344.254 149.073C342.473 140.06 339.453 131.334 337.574 122.337C335.775 113.723 334.229 105.123 332.91 96.4129C331.82 101.239 332.222 106.541 331.836 111.465C331.44 116.497 331.479 121.435 331.61 126.496C331.854 135.896 332.855 145.183 333.706 154.561ZM360.271 109.744C360.306 105.72 361.085 101.751 361.325 97.7371C361.399 96.5055 362.624 88.1031 361.481 87.6645C360.541 89.7155 360.322 92.3402 359.468 94.4922C358.616 96.6422 357.475 98.6903 356.656 100.855C354.883 105.545 354.271 110.852 354.08 115.838C353.648 127.116 353.425 138.368 354.182 149.646C354.507 154.48 354.756 159.323 354.667 164.166C354.57 169.496 353.754 174.122 354.744 179.408C355.725 184.642 356.341 189.855 356.667 195.166C356.896 198.893 356.989 198.63 360.542 198.367C363.108 198.178 365.698 198.38 368.267 198.263C367.066 183.735 366.87 169.177 364.951 154.705C363.972 147.322 363.946 139.832 362.73 132.476C362.126 128.823 361.112 125.242 360.529 121.584C359.903 117.656 360.211 113.702 360.271 109.744ZM100.412 100.601C107.253 101.195 114.53 103.241 121.542 101.89C120.386 101.421 117.361 100.775 118.723 98.9258C120.107 97.0455 122.439 99.4305 123.82 99.1842C124.671 99.0322 126.552 95.4712 127.076 94.734C128.267 93.0584 128.411 92.7664 130.552 92.3369C132.626 91.9215 133.097 92.3714 133.359 90.3074C133.661 87.934 132.841 85.2657 132.922 82.8388C133.097 77.6139 134.781 73.032 136.348 68.1162C129.688 69.5662 123.176 71.2858 116.366 72.2204C113.455 72.62 108.926 73.5417 106.281 71.5612C105.594 71.0461 105.704 70.3508 105.141 69.7539C104.197 68.7525 102.446 67.7166 101.108 67.4312C92.8706 65.6763 92.0671 77.4282 96.1951 81.8257C97.2289 82.9276 98.6675 83.4718 99.7262 84.4815C101.139 85.8281 101.255 87.2466 101.462 89.3022C101.848 93.1568 101.323 97.0264 99.6797 100.552L100.412 100.601ZM200.372 156.082C202.804 156.544 205.342 156.438 207.78 156.832C208.646 156.972 211.243 157.461 212.004 156.954C213.167 156.18 213.581 153.342 214.13 152.02C215.098 149.695 216.466 147.668 217.388 145.3C221.157 135.632 224.671 125.924 229.229 116.585C227.482 116.131 226.14 116.113 224.38 115.879C222.546 115.634 220.883 114.549 219.133 114.082C217.47 113.639 215.728 113.752 214.08 113.236C213.173 112.953 212.394 112.322 211.499 112.101C210.072 111.75 208.408 111.545 207.559 112.482C206.69 113.443 206.385 116.079 205.911 117.32C204.651 120.628 203.188 123.82 202.132 127.203C201.18 130.255 200.275 133.274 199.436 136.354C198.551 139.605 196.805 142.284 195.742 145.39C194.933 147.754 194.17 150.171 194.049 152.691C193.931 155.15 193.574 155.307 196.031 155.7C197.272 155.898 199.205 156.636 200.372 156.082ZM360.365 271.186C360.999 271.481 361.596 271.442 362.156 271.068C356.665 268.747 351.324 265.528 345.596 263.935C340.222 262.442 334.999 260.658 329.823 258.818C325.616 257.324 321.834 256.16 318.031 253.53C315.723 251.934 313.672 250.138 312.086 247.805C310.32 245.208 309.927 241.511 308.014 239.172C305.433 242.009 302.4 244.158 299.346 246.412C298.289 247.192 295.755 248.893 295.393 250.1C294.937 251.623 296.159 253.08 296.763 254.622C298.311 258.569 299.067 262.515 299.907 266.619C300.243 268.264 300.97 270.736 302.32 271.426C303.549 272.052 307.11 271.597 308.639 271.48C316.621 270.875 324.46 270.255 332.49 270.807C341.576 271.43 351.303 271.861 360.365 271.186ZM376.307 198.035C377.757 198.04 379.174 197.859 380.619 197.859C379.785 193.96 381.735 188.916 382.427 185.025C383.2 180.672 383.789 176.172 384.305 171.784C385.393 162.543 385.885 153.413 385.899 144.104C385.913 135.096 387.551 126.865 389.846 118.205C392.311 108.905 396.347 100.542 399.684 91.5726C396.023 93.5091 393.997 98.0403 392.074 101.504C389.643 105.884 388.023 110.734 387.03 115.651C385.115 125.137 383.014 134.651 380.804 144.121C378.503 153.982 377.15 163.932 374.513 173.712C373.227 178.481 371.479 184.349 371.382 189.267C371.342 191.302 370.729 195.562 371.651 197.329C372.512 198.983 374.417 198.204 376.307 198.035ZM157.352 185.801C157.276 186.814 157.204 187.777 157.024 188.777C159.033 188.758 161.578 186.672 163.301 185.735C165.4 184.594 167.502 183.335 169.555 182.189C173.519 179.974 178.019 178.515 182.251 176.695C187.113 174.605 191.581 172.08 196.231 169.564C197.855 168.685 209.526 163.621 209.331 162.238C206.768 162.153 204.206 162.067 201.643 161.982C199.446 161.909 196.044 162.406 193.94 161.726C192.788 161.354 191.494 159.983 191.059 158.909C190.628 157.847 191.596 152.96 191.034 152.648C188.166 155.579 186.362 159.474 183.798 162.635C180.965 166.129 177.303 168.169 173.268 170.026C168.812 172.077 164.199 173.664 159.645 175.422C157.724 176.163 157.762 176.587 157.595 178.695C157.408 181.05 157.428 183.439 157.352 185.801ZM388.922 274.423C393.753 274.942 398.703 274.646 403.572 275.051C405.343 275.198 407.799 275.417 406.017 277.796C404.894 279.295 401.299 278.814 399.669 278.918C395.29 279.197 390.655 279.047 386.267 278.982C385.343 278.969 384.322 278.694 383.388 278.756C382.31 278.827 381.019 279.603 380.037 279.597C379.431 279.593 379.214 278.954 378.692 278.895C377.555 278.768 376.417 278.674 375.27 278.674C357.926 278.678 340.819 278.329 323.518 278.311C315.245 278.302 306.839 278.159 298.57 277.77C296.833 277.688 286.944 278.044 287.218 274.915C287.358 273.303 290.586 273.076 291.764 272.905C292.637 272.778 293.542 272.798 294.417 272.751C296.74 272.626 297.758 273.186 297.268 270.642C295.409 260.992 292.078 253.017 284.961 246.079C279.141 240.405 272.133 235.259 265.542 230.521C257.538 224.768 251.045 218.718 246.294 209.915C243.519 204.775 241.196 199.519 239.77 193.835C239.257 191.791 239.245 189.465 238.616 187.494C238.133 185.976 237.03 184.914 236.381 183.342C228.418 196.652 217.864 207.789 208.187 219.79C203.563 225.524 198.288 230.97 192.764 235.958C191.124 237.438 189.595 238.984 188.064 240.577C186.784 241.91 184.752 243.095 183.672 244.574C182.635 245.993 182.89 245.925 184.468 247.052C186.554 248.541 188.853 249.779 190.972 251.231C194.358 253.552 198.055 255.514 201.083 258.307C204.358 261.329 207.22 264.829 210.082 268.236C211.99 270.506 214.494 273.42 214.973 276.291C215.132 277.241 215.736 279.59 214.939 280.286C214.259 280.88 214.327 280.655 213.482 280.292C212.375 279.817 212.049 278.727 210.696 278.207C207.235 276.878 203.047 277.334 199.446 277.318C195.843 277.302 192.211 277.707 188.61 277.692C180.387 277.658 172.34 278.325 164.12 278.682C155.389 279.062 146.551 278.151 137.849 278.28C131.402 278.375 124.783 277.893 118.158 278.252C114.75 278.436 111.403 278.009 108.08 277.961C103.73 277.899 99.2618 278.491 94.874 278.575C87.6722 278.714 80.5585 278.713 73.3127 278.887C57.7272 279.26 42.2259 279.646 26.6312 279.893C24.551 279.926 22.2737 279.855 20.218 280.089C18.0362 280.338 19.1626 280.802 17.6655 281.589C13.4745 283.789 14.4423 275.633 14.5428 274.029C15.0815 265.432 17.2621 257.001 19.8827 248.84C22.3688 241.1 24.3871 232.998 26.4926 225.091C28.7973 216.436 31.8001 208.135 34.5269 199.565C37.321 190.784 39.5958 181.66 44.6705 173.875C45.8264 172.103 47.0208 170.195 48.8802 169.077C50.9645 167.824 51.0542 168.556 51.0525 166.263C51.0513 164.103 51.1841 161.217 50.6748 159.156C50.2146 157.294 50.2855 158.398 49.2492 157.061C48.4058 155.973 47.5234 155.229 46.9183 153.908C43.2012 157.68 34.6925 155.69 31.1012 152.974C26.7055 149.649 23.3574 144.041 22.1305 138.699C21.1452 134.41 22.3542 126.233 27.0981 124.17C29.4107 123.165 37.9049 122.405 38.2448 119.128C38.42 117.436 35.4305 115.057 34.7407 113.602C33.4623 110.907 32.2346 107.323 31.8794 104.369C31.1854 98.6027 33.801 92.155 37.9676 88.2601C45.6109 81.115 59.0595 77.4482 68.8913 81.9814C66.8136 74.0384 65.5594 67.1862 66.6057 58.9237C67.5072 51.8056 71.7036 47.8231 77.4781 44.2776C87.3319 38.2264 100.732 35.8381 111.999 37.5975C114.559 37.9975 117.016 38.8553 119.387 39.5377C122.831 40.5292 126.954 40.199 130.206 41.8099C132.564 42.9775 134.354 45.3035 136.425 46.8566C138.842 48.6696 140.851 51.3757 142.531 53.8783C146.123 59.2299 144.719 69.162 141.713 74.534C141.068 75.6862 140.272 76.6561 139.205 77.4423C138.095 78.2606 136.402 78.5152 135.829 79.5765C134.363 82.295 135.777 88.1804 135.973 91.1186C136.201 94.5304 134.477 97.0932 130.611 97.3653C128.375 97.5231 128.304 96.2247 127.233 98.8963C126.539 100.628 125.909 102.515 124.907 104.102C122.842 107.374 119.06 107.055 115.616 106.966C111.628 106.863 107.7 106.233 103.71 105.835C104.764 109.214 107.648 111.836 109.45 114.846C111.885 118.918 113.351 122.293 113.747 127.036C114.051 130.68 113.395 133.559 110.903 136.271C109.872 137.394 108.958 137.449 109.214 138.744C109.37 139.534 110.735 140.837 111.218 141.468C112.496 143.136 113.979 144.667 115.104 146.449C119.432 153.303 120.711 163.752 120.721 171.731C120.722 172.097 120.917 172.875 120.755 173.253C120.636 173.533 119.728 174.418 119.715 174.494C119.537 175.52 120.536 177.279 122.105 177.453C123.752 177.635 126.769 176.259 128.301 175.807C130.753 175.084 133.253 174.55 135.699 173.807C139.651 172.607 143.584 171.65 147.601 170.709C149.417 170.285 151.242 169.931 153.063 169.534C155.138 169.082 156.101 168.208 157.172 170.32C158.091 172.133 157.52 172.462 159.745 171.548C161.954 170.641 164.112 169.516 166.269 168.492C170.074 166.686 174.604 165.076 177.886 162.409C183.36 157.961 185.387 150.878 190.626 146.158C192.085 144.844 192.955 144.82 193.877 143C194.865 141.051 195.374 138.552 195.893 136.457C196.802 132.786 197.449 129.103 198.274 125.436C199.301 120.868 201.521 116.731 203.141 112.374C203.772 110.676 204.099 108.519 205.118 106.993C205.387 106.588 205.903 106.36 206.113 106.026C206.837 104.876 206.83 104.561 207.018 103.178C207.895 96.7169 211.749 100.116 215.96 101.597C217.734 102.222 226.159 106.27 222.942 108.963C226.777 110.076 232.919 109.471 232.868 114.971C232.841 117.79 231.157 120.804 230.253 123.442C229.45 125.785 228.674 128.136 227.858 130.474C226.072 135.597 223.904 140.567 222.16 145.705C221.365 148.047 220.71 150.443 219.603 152.654C218.627 154.603 216.265 156.752 215.875 158.885C226.095 154.521 235.549 148.213 246.988 148.615C251.997 148.79 256.542 150.897 259.308 155.305C262.776 160.829 265.058 167.014 268.448 172.59C280.779 192.872 295.486 211.297 309.023 230.74C310.063 232.234 311.4 233.646 311.761 235.493C311.996 236.697 311.54 237.902 311.822 239.059C312.408 241.464 315.366 244.467 317.373 245.849C321.218 248.498 327.47 252.235 332.269 251.904C329.257 244.66 329.298 236.723 329.437 228.996C329.571 221.656 330.363 214.375 331.304 207.111C331.517 205.467 331.703 203.944 332.175 202.351C332.716 200.523 333.46 200.696 331.838 199.054C329.341 196.524 326.371 194.443 323.854 191.882C318.409 186.343 312.83 182.002 308.545 175.388C304.47 169.098 300.171 162.625 297.154 155.736C294.049 148.645 292.808 141.071 291.266 133.561C290.641 130.513 288.36 127.111 288.818 123.929C289.397 119.907 291.261 122.835 292.02 125C294.335 131.607 299.756 137.521 304.245 142.834C309.096 148.575 315.029 153.378 320.093 158.951C325.607 165.021 329.384 171.997 334.287 178.477C334.287 170.435 331.543 162.247 330.421 154.292C329.434 147.29 329.124 140.266 328.499 133.234C327.082 117.26 328.307 100.815 330.296 84.9555C331.242 77.4232 330.705 70.0684 330.734 62.5104C330.743 60.105 329.748 54.5612 331.016 52.4266C333.445 48.3382 334.861 57.2781 334.984 58.611C335.718 66.5511 334.401 74.4027 335.074 82.3088C335.777 90.565 337.303 98.5894 338.601 106.75C340.008 115.586 342.297 124.223 344.49 132.889C346.792 141.989 348.727 151.278 351.286 160.305C351.977 157.467 351.008 153.982 350.817 151.092C350.544 146.957 350.011 142.82 349.964 138.674C349.891 132.066 349.839 125.336 350.213 118.758C350.581 112.275 350.47 105.482 352.456 99.2361C353.399 96.2717 354.782 93.3795 356.135 90.587C357.805 87.1436 358.395 83.8049 359.319 80.1426C360.111 77.0062 361.27 73.9524 361.797 70.7533C362.125 68.7637 363.04 62.8905 365.316 67.3403C366.638 69.923 366.067 73.7518 366.104 76.5265C366.151 80.0836 365.607 83.5424 365.523 87.0846C365.361 94.0345 365.245 100.976 364.727 107.914C364.183 115.194 364.658 121.717 366.041 128.89C367.556 136.741 367.999 144.609 368.784 152.556C369.189 156.66 369.871 160.74 370.201 164.85C370.375 167.026 369.481 173.266 371.039 174.815C371.19 171.046 372.269 167.274 373.087 163.601C374.056 159.25 374.447 154.676 375.161 150.263C376.318 143.113 378.563 136.285 380.048 129.215C383.109 114.641 385.652 95.9103 398.48 86.371C400.158 85.1228 402.003 84.2016 403.817 83.1744C404.845 82.5929 406.371 81.0884 407.546 80.8259C408.829 80.5393 409.364 80.7619 409.884 82.2514C410.609 84.3278 409.283 85.2977 408.045 86.8059C403.761 92.0245 401.93 98.7144 399.285 104.835C393.227 118.85 390.547 133.632 390.516 148.781C390.5 156.711 389.953 164.36 389.108 172.243C388.199 180.726 387.001 189.698 384.426 197.858C387.009 198.438 389.811 197.574 390.512 200.578C390.684 201.317 390.373 202.189 390.564 203.15C390.749 204.084 391.194 205.012 391.458 205.931C392.002 207.83 392.29 209.704 392.555 211.655C393.579 219.193 395.337 226.363 395.524 234.006C395.696 241.071 394.314 248.229 393.041 255.158C391.758 262.137 388.079 268.086 385.182 274.397C386.429 274.397 387.675 274.41 388.922 274.423Z" fill="black"/>
<path fill-rule="evenodd" clip-rule="evenodd" d="M224.981 258.38C223.607 258.769 216.976 259.502 216.977 261.585C216.978 262.834 223.601 262.81 224.773 262.945C224.843 261.424 224.912 259.902 224.981 258.38ZM239.62 272.751C243.442 273.479 248.629 272.456 251.073 269.084C252.214 267.509 252.756 265.112 253.128 263.232C253.483 261.44 254.578 256.969 253.833 255.289C252.918 253.226 244.137 255.382 241.58 255.619C237.118 256.031 232.505 256.079 228.041 255.788C228.041 260.401 227.805 264.897 230.516 268.868C232.472 271.732 236.145 272.409 239.62 272.751ZM238.852 278.449C234.699 276.928 230.34 277.917 227.636 273.455C226.95 272.324 226.372 271.106 225.957 269.849C225.754 269.298 225.596 268.734 225.484 268.157C225.696 266.913 225.24 266.562 224.119 267.104C221.918 266.676 219.504 268.188 217.186 267.742C211.563 266.662 212.584 258.601 216.358 255.81C217.103 255.259 217.848 255.105 218.701 254.833C220.582 254.233 221.6 254.903 223.321 254.733C224.711 254.595 225.093 253.136 226.587 252.494C227.566 252.073 228.924 252.106 229.952 252.063C235.334 251.842 240.734 251.844 246.15 251.493C248.677 251.329 251.404 251.73 253.879 251.298C255.038 251.095 254.872 250.323 255.969 251C257.105 251.702 256.614 254.294 256.557 255.328C256.225 261.306 255.87 267.718 252.67 272.944C249.742 277.727 243.981 278.216 238.852 278.449Z" fill="black"/>
<path fill-rule="evenodd" clip-rule="evenodd" d="M19.5505 280.097C20.8865 280.082 22.2221 280.068 23.5536 280.054C22.2159 280.069 20.8832 280.083 19.5505 280.097Z" fill="black"/>
<path fill-rule="evenodd" clip-rule="evenodd" d="M390.524 152.631C390.522 151.346 390.519 150.062 390.516 148.78C390.518 150.065 390.521 151.348 390.524 152.631Z" fill="black"/>
<path fill-rule="evenodd" clip-rule="evenodd" d="M50.679 157.905C50.6748 159.156 50.6707 160.407 50.6665 161.655C50.6702 160.404 50.6744 159.154 50.679 157.905Z" fill="black"/>
<path fill-rule="evenodd" clip-rule="evenodd" d="M161.731 278.678C162.794 278.68 163.856 278.681 164.914 278.684C163.85 278.683 162.791 278.681 161.731 278.678Z" fill="black"/>
<path fill-rule="evenodd" clip-rule="evenodd" d="M97.1932 278.423C98.2562 278.426 99.3187 278.43 100.377 278.434C99.312 278.431 98.2528 278.427 97.1932 278.423Z" fill="black"/>
<path fill-rule="evenodd" clip-rule="evenodd" d="M329.578 226.464C329.531 227.309 329.484 228.153 329.437 228.996C329.484 228.15 329.531 227.308 329.578 226.464Z" fill="black"/>
<path fill-rule="evenodd" clip-rule="evenodd" d="M388.923 274.423C388.101 274.414 387.28 274.406 386.458 274.397C387.284 274.053 388.105 274.068 388.923 274.423Z" fill="black"/>
<path fill-rule="evenodd" clip-rule="evenodd" d="M315.997 278.162C316.587 278.153 317.176 278.144 317.76 278.134C317.169 278.142 316.583 278.152 315.997 278.162Z" fill="black"/>
<path fill-rule="evenodd" clip-rule="evenodd" d="M390.204 163.051C390.219 162.413 390.233 161.775 390.248 161.139C390.233 161.778 390.219 162.415 390.204 163.051Z" fill="black"/>
<path fill-rule="evenodd" clip-rule="evenodd" d="M335.074 82.3087C335.026 81.6504 334.977 80.9925 334.928 80.3358C334.977 80.9945 335.026 81.6516 335.074 82.3087Z" fill="black"/>
<path fill-rule="evenodd" clip-rule="evenodd" d="M390.495 155.145C390.503 154.485 390.511 153.825 390.519 153.168C390.511 153.828 390.503 154.487 390.495 155.145Z" fill="black"/>
<path fill-rule="evenodd" clip-rule="evenodd" d="M205.104 277.344C205.628 277.352 206.152 277.359 206.672 277.366C206.147 277.357 205.625 277.351 205.104 277.344Z" fill="black"/>
<path fill-rule="evenodd" clip-rule="evenodd" d="M340.118 278.42C340.631 278.43 341.143 278.44 341.651 278.451C341.137 278.441 340.628 278.43 340.118 278.42Z" fill="black"/>
<path fill-rule="evenodd" clip-rule="evenodd" d="M395.465 232.019C395.428 231.44 395.391 230.862 395.355 230.284C395.392 230.863 395.429 231.441 395.465 232.019Z" fill="black"/>
<path fill-rule="evenodd" clip-rule="evenodd" d="M386.267 278.982C386.684 278.98 387.101 278.977 387.513 278.976C387.095 278.979 386.68 278.981 386.267 278.982Z" fill="black"/>
<path fill-rule="evenodd" clip-rule="evenodd" d="M329.44 278.446C329.853 278.436 330.266 278.426 330.675 278.416C330.26 278.426 329.85 278.436 329.44 278.446Z" fill="black"/>
<path fill-rule="evenodd" clip-rule="evenodd" d="M236.601 278.13C237.056 278.128 237.51 278.125 237.961 278.122C237.505 278.124 237.053 278.127 236.601 278.13Z" fill="black"/>
<path fill-rule="evenodd" clip-rule="evenodd" d="M131.759 278.129C132.191 278.132 132.623 278.135 133.051 278.139C132.617 278.136 132.188 278.132 131.759 278.129Z" fill="black"/>
<path fill-rule="evenodd" clip-rule="evenodd" d="M106.254 278.198C106.695 278.174 107.135 278.149 107.571 278.125C107.129 278.15 106.692 278.174 106.254 278.198Z" fill="black"/>
<path fill-rule="evenodd" clip-rule="evenodd" d="M228.361 110.134C227.705 110.078 227.049 110.021 226.393 109.965C227.05 110.011 227.744 109.622 228.361 110.134Z" fill="black"/>
<path fill-rule="evenodd" clip-rule="evenodd" d="M395.527 274.672C394.881 274.607 394.234 274.542 393.588 274.476C394.235 274.542 394.881 274.607 395.527 274.672Z" fill="black"/>
<path fill-rule="evenodd" clip-rule="evenodd" d="M350.424 114.119C350.381 114.686 350.337 115.253 350.294 115.819C350.338 115.251 350.381 114.685 350.424 114.119Z" fill="black"/>
<path fill-rule="evenodd" clip-rule="evenodd" d="M390.658 137.758C390.702 137.221 390.746 136.683 390.79 136.148C390.746 136.686 390.701 137.222 390.658 137.758Z" fill="black"/>
<path fill-rule="evenodd" clip-rule="evenodd" d="M350.167 122.914C350.121 123.48 350.074 124.046 350.028 124.61C350.074 124.043 350.121 123.478 350.167 122.914Z" fill="black"/>
<path fill-rule="evenodd" clip-rule="evenodd" d="M390.384 159.456C390.38 158.909 390.376 158.362 390.372 157.817C390.725 158.362 390.711 158.908 390.384 159.456Z" fill="black"/>
<path fill-rule="evenodd" clip-rule="evenodd" d="M329.587 238.015C329.582 238.563 329.577 239.112 329.572 239.658C329.21 239.105 329.282 238.559 329.587 238.015Z" fill="black"/>
<path fill-rule="evenodd" clip-rule="evenodd" d="M370.802 174.579C370.738 174.024 370.675 173.469 370.612 172.916C370.675 173.471 370.738 174.025 370.802 174.579Z" fill="black"/>
<path fill-rule="evenodd" clip-rule="evenodd" d="M29.5293 123.643C29.1006 124.21 28.5166 123.822 28.007 123.891C28.515 123.808 29.0221 123.726 29.5293 123.643Z" fill="black"/>
<path fill-rule="evenodd" clip-rule="evenodd" d="M241.528 251.886C240.986 251.887 240.445 251.888 239.903 251.888C240.445 251.888 240.986 251.887 241.528 251.886Z" fill="black"/>
<path fill-rule="evenodd" clip-rule="evenodd" d="M328.062 125.973C328.113 126.434 328.163 126.895 328.214 127.354C328.163 126.892 328.113 126.433 328.062 125.973Z" fill="black"/>
<path fill-rule="evenodd" clip-rule="evenodd" d="M60.3843 80.1825C59.8397 80.1933 59.2952 80.2041 58.7507 80.2149C59.2894 79.8976 59.8323 79.8058 60.3843 80.1825Z" fill="black"/>
<path fill-rule="evenodd" clip-rule="evenodd" d="M350.153 130.889C350.118 131.373 350.083 131.856 350.048 132.337C350.083 131.854 350.118 131.372 350.153 130.889Z" fill="black"/>
<path fill-rule="evenodd" clip-rule="evenodd" d="M335.221 71.5413C335.263 71.1006 335.305 70.6599 335.347 70.2216C335.304 70.6632 335.263 71.1022 335.221 71.5413Z" fill="black"/>
<path fill-rule="evenodd" clip-rule="evenodd" d="M330.942 70.1606C330.899 70.6387 330.856 71.1172 330.814 71.5936C330.856 71.1147 330.899 70.6374 330.942 70.1606Z" fill="black"/>
<path fill-rule="evenodd" clip-rule="evenodd" d="M94.4137 38.2224C93.8596 38.2897 93.3056 38.357 92.7519 38.4239C93.306 38.3566 93.8596 38.2897 94.4137 38.2224Z" fill="black"/>
<path fill-rule="evenodd" clip-rule="evenodd" d="M54.394 80.563C53.8254 80.6211 53.2568 80.6793 52.6886 80.7374C53.2572 80.6793 53.8258 80.6211 54.394 80.563Z" fill="black"/>
<path fill-rule="evenodd" clip-rule="evenodd" d="M365.977 81.9644C366.012 81.5196 366.047 81.0743 366.081 80.6319C366.047 81.0772 366.012 81.5208 365.977 81.9644Z" fill="black"/>
<path fill-rule="evenodd" clip-rule="evenodd" d="M35.7314 155.383C36.0588 155.388 36.3859 155.392 36.7084 155.397C36.3797 155.392 36.0555 155.388 35.7314 155.383Z" fill="black"/>
<path fill-rule="evenodd" clip-rule="evenodd" d="M330.958 210.288C330.925 210.781 330.893 211.273 330.86 211.764C330.893 211.272 330.926 210.78 330.958 210.288Z" fill="black"/>
<path fill-rule="evenodd" clip-rule="evenodd" d="M364.363 114.421C364.35 113.946 364.337 113.472 364.323 112.998C364.337 113.474 364.35 113.947 364.363 114.421Z" fill="black"/>
<path fill-rule="evenodd" clip-rule="evenodd" d="M108.362 37.0991C107.856 37.0991 107.351 37.0995 106.847 37.0995C107.352 36.7522 107.857 36.761 108.362 37.0991Z" fill="black"/>
<path fill-rule="evenodd" clip-rule="evenodd" d="M243.212 148.842C242.659 148.856 242.106 148.87 241.553 148.884C242.097 148.5 242.65 148.49 243.212 148.842Z" fill="black"/>
<path fill-rule="evenodd" clip-rule="evenodd" d="M291.56 277.324C291.888 277.331 292.216 277.338 292.54 277.346C292.211 277.339 291.885 277.332 291.56 277.324Z" fill="black"/>
<path fill-rule="evenodd" clip-rule="evenodd" d="M303.91 277.901C304.238 277.889 304.565 277.878 304.888 277.867C304.559 277.878 304.235 277.89 303.91 277.901Z" fill="black"/>
<path fill-rule="evenodd" clip-rule="evenodd" d="M110.628 278.129C110.97 278.138 111.312 278.146 111.649 278.155C111.306 278.146 110.967 278.138 110.628 278.129Z" fill="black"/>
<path fill-rule="evenodd" clip-rule="evenodd" d="M395.181 226.526C395.133 226.057 395.084 225.587 395.035 225.12C395.084 225.59 395.133 226.058 395.181 226.526Z" fill="black"/>
<path fill-rule="evenodd" clip-rule="evenodd" d="M350.572 147.4C350.611 147.847 350.649 148.295 350.687 148.739C350.649 148.291 350.61 147.846 350.572 147.4Z" fill="black"/>
<path fill-rule="evenodd" clip-rule="evenodd" d="M367.739 139.72C367.686 139.245 367.633 138.771 367.58 138.298C367.634 138.773 367.686 139.246 367.739 139.72Z" fill="black"/>
<path fill-rule="evenodd" clip-rule="evenodd" d="M113.4 278.412C113.744 278.407 114.089 278.401 114.43 278.397C114.084 278.402 113.742 278.407 113.4 278.412Z" fill="black"/>
<path fill-rule="evenodd" clip-rule="evenodd" d="M238.852 278.449C239.187 278.434 239.522 278.419 239.853 278.404C239.517 278.419 239.184 278.434 238.852 278.449Z" fill="black"/>
<path fill-rule="evenodd" clip-rule="evenodd" d="M364.937 105.083C364.922 104.602 364.907 104.122 364.892 103.642C364.907 104.123 364.922 104.603 364.937 105.083Z" fill="black"/>
<path fill-rule="evenodd" clip-rule="evenodd" d="M80.7349 278.726C81.071 278.723 81.4068 278.721 81.7384 278.719C81.4006 278.721 81.0681 278.724 80.7349 278.726Z" fill="black"/>
<path fill-rule="evenodd" clip-rule="evenodd" d="M364.797 278.721C365.142 278.724 365.488 278.728 365.829 278.732C365.482 278.728 365.139 278.725 364.797 278.721Z" fill="black"/>
<path fill-rule="evenodd" clip-rule="evenodd" d="M372.257 278.68C372.591 278.704 372.924 278.728 373.254 278.75C372.919 278.727 372.588 278.704 372.257 278.68Z" fill="black"/>
<path fill-rule="evenodd" clip-rule="evenodd" d="M375.27 278.674C375.61 278.684 375.95 278.694 376.285 278.702C375.944 278.691 375.607 278.683 375.27 278.674Z" fill="black"/>
<path fill-rule="evenodd" clip-rule="evenodd" d="M390.741 141.625C390.718 141.152 390.696 140.679 390.674 140.208C390.697 140.681 390.718 141.153 390.741 141.625Z" fill="black"/>
<path fill-rule="evenodd" clip-rule="evenodd" d="M162.746 272.478C163.779 272.424 164.813 272.37 165.846 272.316C164.813 272.37 163.779 272.424 162.746 272.478Z" fill="black"/>
<path fill-rule="evenodd" clip-rule="evenodd" d="M100.412 100.601C101.309 100.679 102.206 100.758 103.102 100.835C102.205 100.757 101.308 100.679 100.412 100.601Z" fill="black"/>
<path fill-rule="evenodd" clip-rule="evenodd" d="M353.647 139.626C353.674 140.482 353.703 141.339 353.731 142.193C353.703 141.336 353.674 140.481 353.647 139.626Z" fill="black"/>
<path fill-rule="evenodd" clip-rule="evenodd" d="M372.157 273.943C373.093 274 374.029 274.056 374.965 274.113C374.023 274.156 373.067 274.424 372.157 273.943Z" fill="black"/>
<path fill-rule="evenodd" clip-rule="evenodd" d="M366.616 172.633C366.623 171.816 366.63 170.999 366.637 170.184C366.63 171.001 366.623 171.817 366.616 172.633Z" fill="black"/>
<path fill-rule="evenodd" clip-rule="evenodd" d="M364.219 198.303C365.041 198.313 365.863 198.325 366.684 198.335C365.862 198.324 365.041 198.313 364.219 198.303Z" fill="black"/>
<path fill-rule="evenodd" clip-rule="evenodd" d="M157.412 183.939C157.391 184.562 157.371 185.184 157.352 185.804C157.372 185.18 157.392 184.56 157.412 183.939Z" fill="black"/>
<path fill-rule="evenodd" clip-rule="evenodd" d="M377.892 157.574C377.858 158.193 377.825 158.813 377.792 159.429C377.826 158.809 377.859 158.191 377.892 157.574Z" fill="black"/>
<path fill-rule="evenodd" clip-rule="evenodd" d="M360.365 271.186C360.963 271.145 361.561 271.105 362.157 271.066C361.708 271.426 361.256 271.456 360.365 271.186Z" fill="black"/>
<path fill-rule="evenodd" clip-rule="evenodd" d="M356.366 190.19C356.407 190.858 356.448 191.526 356.488 192.192C356.447 191.523 356.407 190.857 356.366 190.19Z" fill="black"/>
<path fill-rule="evenodd" clip-rule="evenodd" d="M132.902 84.7689C132.909 84.1239 132.915 83.4788 132.921 82.8363C132.915 83.4821 132.909 84.1255 132.902 84.7689Z" fill="black"/>
<path fill-rule="evenodd" clip-rule="evenodd" d="M357.089 198.437L359.317 198.389C358.582 198.744 357.839 198.757 357.089 198.437Z" fill="black"/>
<path fill-rule="evenodd" clip-rule="evenodd" d="M377.64 203.198C377.114 203.202 376.589 203.206 376.068 203.212C376.594 203.208 377.117 203.203 377.64 203.198Z" fill="black"/>
<path fill-rule="evenodd" clip-rule="evenodd" d="M185.281 271.442C186.008 271.452 186.735 271.461 187.462 271.47C186.73 271.838 186.002 271.89 185.281 271.442Z" fill="black"/>
<path fill-rule="evenodd" clip-rule="evenodd" d="M48.3054 273.587C49.0433 273.521 49.7817 273.455 50.5196 273.388C49.7817 273.455 49.0433 273.521 48.3054 273.587Z" fill="black"/>
<path fill-rule="evenodd" clip-rule="evenodd" d="M353.903 145.126C353.939 145.797 353.975 146.467 354.011 147.136C353.975 146.464 353.939 145.796 353.903 145.126Z" fill="black"/>
<path fill-rule="evenodd" clip-rule="evenodd" d="M118.351 102.175C118.973 101.868 119.6 101.817 120.234 102.142C119.606 102.153 118.979 102.164 118.351 102.175Z" fill="black"/>
<path fill-rule="evenodd" clip-rule="evenodd" d="M333.552 152.868C333.604 153.433 333.655 153.999 333.707 154.562C333.655 153.996 333.604 153.432 333.552 152.868Z" fill="black"/>
<path fill-rule="evenodd" clip-rule="evenodd" d="M386.107 139.673C385.788 139.119 385.799 138.569 386.123 138.024C386.118 138.574 386.113 139.124 386.107 139.673Z" fill="black"/>
<path fill-rule="evenodd" clip-rule="evenodd" d="M354.005 120.466C354.005 121.026 354.005 121.586 354.005 122.143C354.005 121.583 354.005 121.024 354.005 120.466Z" fill="black"/>
<path fill-rule="evenodd" clip-rule="evenodd" d="M376.307 198.035C376.947 197.839 377.587 197.561 378.225 198.042C377.585 198.04 376.946 198.037 376.307 198.035Z" fill="black"/>
<path fill-rule="evenodd" clip-rule="evenodd" d="M169.366 272.225C170.011 272.165 170.655 272.105 171.299 272.045C170.655 272.105 170.011 272.165 169.366 272.225Z" fill="black"/>
<path fill-rule="evenodd" clip-rule="evenodd" d="M81.027 272.226C81.6172 271.967 82.2062 271.83 82.7876 272.246C82.2003 272.239 81.6139 272.233 81.027 272.226Z" fill="black"/>
<path fill-rule="evenodd" clip-rule="evenodd" d="M201.747 271.393C202.378 271.117 203.007 270.966 203.63 271.413C203.002 271.406 202.375 271.4 201.747 271.393Z" fill="black"/>
<path fill-rule="evenodd" clip-rule="evenodd" d="M61.2608 189.681C61.3081 190.251 61.3558 190.821 61.4027 191.39C61.355 190.819 61.3077 190.25 61.2608 189.681Z" fill="black"/>
<path fill-rule="evenodd" clip-rule="evenodd" d="M207.78 156.832C208.4 156.606 209.019 156.488 209.629 156.865C209.012 156.854 208.396 156.843 207.78 156.832Z" fill="black"/>
<path fill-rule="evenodd" clip-rule="evenodd" d="M353.893 173.808C353.928 174.365 353.962 174.923 353.996 175.479C353.962 174.921 353.927 174.364 353.893 173.808Z" fill="black"/>
<path fill-rule="evenodd" clip-rule="evenodd" d="M60.8595 123.51C60.808 123.959 60.7566 124.409 60.7055 124.855C60.757 124.406 60.808 123.958 60.8595 123.51Z" fill="black"/>
<path fill-rule="evenodd" clip-rule="evenodd" d="M24.8706 253.723C24.8386 254.161 24.8071 254.598 24.7755 255.032C24.8083 254.595 24.8394 254.159 24.8706 253.723Z" fill="black"/>
<path fill-rule="evenodd" clip-rule="evenodd" d="M366.891 176.758C366.857 176.306 366.822 175.854 366.787 175.404C366.822 175.857 366.857 176.307 366.891 176.758Z" fill="black"/>
<path fill-rule="evenodd" clip-rule="evenodd" d="M321.673 270.55C322.226 270.553 322.779 270.557 323.332 270.561C322.779 270.557 322.226 270.553 321.673 270.55Z" fill="black"/>
<path fill-rule="evenodd" clip-rule="evenodd" d="M157.203 187.784C157.306 188.113 157.409 188.443 157.513 188.772C156.822 188.939 156.719 188.61 157.203 187.784Z" fill="black"/>
<path fill-rule="evenodd" clip-rule="evenodd" d="M198.686 156.088C199.248 156.086 199.81 156.084 200.372 156.081C199.811 156.348 199.25 156.531 198.686 156.088Z" fill="black"/>
<path fill-rule="evenodd" clip-rule="evenodd" d="M61.5758 192.38C61.5949 192.879 61.614 193.378 61.6322 193.874C61.6127 193.376 61.5941 192.878 61.5758 192.38Z" fill="black"/>
<path fill-rule="evenodd" clip-rule="evenodd" d="M67.5209 272.772C68.0633 272.771 68.6054 272.771 69.1478 272.771C68.605 272.771 68.0633 272.771 67.5209 272.772Z" fill="black"/>
<path fill-rule="evenodd" clip-rule="evenodd" d="M334.916 197.636C334.936 198.095 334.957 198.554 334.977 199.01C334.957 198.55 334.937 198.093 334.916 197.636Z" fill="black"/>
<path fill-rule="evenodd" clip-rule="evenodd" d="M56.0052 273.331C56.5385 272.977 57.0731 273.008 57.6085 273.325C57.0739 273.327 56.5393 273.33 56.0052 273.331Z" fill="black"/>
<path fill-rule="evenodd" clip-rule="evenodd" d="M70.0493 117.098C70.078 117.567 70.107 118.036 70.1369 118.502C70.1083 118.032 70.0788 117.565 70.0493 117.098Z" fill="black"/>
<path fill-rule="evenodd" clip-rule="evenodd" d="M53.2302 273.379C53.7847 273.381 54.3392 273.384 54.8933 273.386C54.3371 273.765 53.7831 273.783 53.2302 273.379Z" fill="black"/>
<path fill-rule="evenodd" clip-rule="evenodd" d="M360.271 109.744C360.276 109.268 360.28 108.792 360.284 108.317C360.279 108.794 360.275 109.268 360.271 109.744Z" fill="black"/>
<path fill-rule="evenodd" clip-rule="evenodd" d="M105.707 101.42C106.238 101.489 106.768 101.558 107.298 101.627C106.768 101.558 106.237 101.489 105.707 101.42Z" fill="black"/>
<path fill-rule="evenodd" clip-rule="evenodd" d="M58.9009 142.499C58.9079 142.943 58.915 143.388 58.9233 143.83C58.9162 143.385 58.9088 142.942 58.9009 142.499Z" fill="black"/>
<path fill-rule="evenodd" clip-rule="evenodd" d="M363.842 142.435C363.813 141.982 363.784 141.529 363.755 141.079C363.784 141.532 363.814 141.984 363.842 142.435Z" fill="black"/>
<path fill-rule="evenodd" clip-rule="evenodd" d="M240.131 272.849C240.785 272.908 241.44 272.967 242.094 273.026C241.439 272.967 240.785 272.908 240.131 272.849Z" fill="black"/>
<path fill-rule="evenodd" clip-rule="evenodd" d="M237.944 255.892C237.59 255.898 237.237 255.903 236.886 255.911C237.241 255.906 237.592 255.899 237.944 255.892Z" fill="black"/>
<path fill-rule="evenodd" clip-rule="evenodd" d="M237.974 272.589C238.522 272.643 239.072 272.698 239.621 272.752C239.071 272.697 238.522 272.643 237.974 272.589Z" fill="black"/>
<path fill-rule="evenodd" clip-rule="evenodd" d="M139.186 235.593C139.9 239.632 133.628 243.582 133.131 237.841C132.949 235.741 134.352 234.265 135.923 232.981C138.152 231.16 139.398 232.904 139.186 235.593Z" fill="black"/>
<path fill-rule="evenodd" clip-rule="evenodd" d="M70.0514 186.316C71.5289 186.921 82.8175 190.602 76.9539 192.454C75.4016 192.944 73.0554 193.017 71.7099 192.154C70.0912 191.114 68.4584 188.048 70.0514 186.316Z" fill="black"/>
<path fill-rule="evenodd" clip-rule="evenodd" d="M72.8296 131.619C76.6612 131.173 80.1915 137.472 75.4676 137.267C72.029 137.118 67.4046 131.619 72.8296 131.619Z" fill="black"/>
<path fill-rule="evenodd" clip-rule="evenodd" d="M86.5363 147.061C89.7358 149.855 83.8053 156.107 81.4508 153.687C80.2484 152.451 81.3574 149.788 82.3498 148.754C83.3683 147.693 85.1804 147.494 86.5363 147.061Z" fill="black"/>
<path fill-rule="evenodd" clip-rule="evenodd" d="M96.0614 219.488C94.1726 219.788 85.866 222.505 87.5983 217.571C88.2591 215.689 90.1019 216.247 91.7865 216.334C94.5017 216.472 96.0614 216.342 96.0614 219.488Z" fill="black"/>
<path fill-rule="evenodd" clip-rule="evenodd" d="M90.59 232.197C93.4176 233.711 89.2843 242.183 86.9405 240.381C83.6887 237.879 88.1363 232.958 90.59 232.197Z" fill="black"/>
<path fill-rule="evenodd" clip-rule="evenodd" d="M102.922 225.386C104.297 224.824 110.779 231.064 108.312 232.799C107.047 233.689 104.651 232.164 103.889 231.244C102.459 229.52 102.33 227.392 102.922 225.386Z" fill="black"/>
<path fill-rule="evenodd" clip-rule="evenodd" d="M65.5262 174.386C66.9315 174.616 69.3578 174.69 69.4487 176.666C69.5284 178.403 67.3523 178.966 65.8204 179.102C64.2308 179.243 62.1266 178.794 62.0963 176.794C62.0643 174.636 65.4764 174.766 65.5262 174.386Z" fill="black"/>
<path fill-rule="evenodd" clip-rule="evenodd" d="M100.181 260.388C101.678 261.297 108.659 264.571 105.666 266.936C104.547 267.821 101.152 265.993 100.388 265.064C99.476 263.955 98.5849 261.357 100.181 260.388Z" fill="black"/>
<path fill-rule="evenodd" clip-rule="evenodd" d="M119.588 236.631C119.371 233.018 125.463 231.579 124.2 236.708C123.844 238.155 123.5 240.35 121.713 240.434C119.601 240.533 119.525 238.033 119.588 236.631Z" fill="black"/>
<path fill-rule="evenodd" clip-rule="evenodd" d="M100.769 173.79C100.811 176.532 95.5626 178.949 95.5219 174.604C95.4858 170.721 100.965 169.585 100.769 173.79Z" fill="black"/>
<path fill-rule="evenodd" clip-rule="evenodd" d="M97.3028 159.513C98.5961 159.93 100.315 160.145 100.428 161.789C100.549 163.53 98.9339 164.304 97.4804 164.207C96.2884 164.126 94.5245 163.243 94.3079 161.949C93.9904 160.049 95.8431 159.925 97.3028 159.513Z" fill="black"/>
<path fill-rule="evenodd" clip-rule="evenodd" d="M73.2546 209.703C73.2326 207.441 77.7623 204.722 78.5966 207.347C78.8634 208.187 76.7285 211.953 76.0183 212.235C74.1395 212.981 73.8772 211.242 73.2546 209.703Z" fill="black"/>
<path fill-rule="evenodd" clip-rule="evenodd" d="M110.374 247.353C108.843 248.724 104.251 252.575 104.595 247.405C104.814 244.102 110.777 244.274 110.374 247.353Z" fill="black"/>
<path fill-rule="evenodd" clip-rule="evenodd" d="M185.182 262.13C185.683 259.956 192.867 263.728 190.47 266.474C189.665 267.395 187.561 266.561 186.752 266.015C185.152 264.934 185.117 263.936 185.182 262.13Z" fill="black"/>
<path fill-rule="evenodd" clip-rule="evenodd" d="M145.157 215.593C145.437 214.624 145.749 212.911 146.673 212.292C148.344 211.173 149.8 212.861 149.8 214.64C149.801 217.959 146.026 219.006 145.157 215.593Z" fill="black"/>
<path fill-rule="evenodd" clip-rule="evenodd" d="M127.353 254.396C129.218 254.824 133.371 259.362 130.963 261.213C128.645 262.994 125.562 255.752 127.353 254.396Z" fill="black"/>
<path fill-rule="evenodd" clip-rule="evenodd" d="M129.129 220.051C131.527 220.242 134.823 224.129 131.096 224.746C128.18 225.23 124.789 221.003 129.129 220.051Z" fill="black"/>
<path fill-rule="evenodd" clip-rule="evenodd" d="M150.84 237.935C151.441 235.908 157.388 238.08 157.054 240.312C156.877 241.499 154.445 241.778 153.167 241.464C151.285 241.002 150.796 239.766 150.84 237.935Z" fill="black"/>
<path fill-rule="evenodd" clip-rule="evenodd" d="M80.7324 124.704C80.7755 122.083 85.8079 121.015 86.1765 123.656C86.5097 126.042 80.6693 128.582 80.7324 124.704Z" fill="black"/>
<path fill-rule="evenodd" clip-rule="evenodd" d="M149.177 264.942C149.54 263.624 149.696 262.037 151.341 261.864C153.224 261.665 153.169 263.11 152.948 264.608C152.345 268.683 150.044 268.887 149.177 264.942Z" fill="black"/>
<path fill-rule="evenodd" clip-rule="evenodd" d="M69.7068 155.888C67.0834 156.48 62.2785 151.423 65.2153 150.338C67.2847 149.573 69.7068 154.362 69.7068 155.888Z" fill="black"/>
<path fill-rule="evenodd" clip-rule="evenodd" d="M103.168 195.166C101.833 195.796 101.525 196.177 100.5 195.145C99.6067 194.245 99.6461 191.74 100.413 190.804C103.349 187.222 103.28 193.717 103.168 195.166Z" fill="black"/>
<path fill-rule="evenodd" clip-rule="evenodd" d="M114.061 187.901C115.454 188.078 119.591 192.006 117.437 193.567C114.797 195.479 113.303 189.489 114.061 187.901Z" fill="black"/>
<path fill-rule="evenodd" clip-rule="evenodd" d="M144.188 188.935C143.176 192.836 140.65 190.211 140.793 187.26C141.023 182.532 143.641 186.65 144.188 188.935Z" fill="black"/>
<path fill-rule="evenodd" clip-rule="evenodd" d="M159.55 251.583C161.262 252.292 163.586 258.843 161.14 259.195C158.393 259.589 159.308 252.947 159.55 251.583Z" fill="black"/>
<path fill-rule="evenodd" clip-rule="evenodd" d="M138.165 247.903C140.124 247.241 140.842 251.377 139.703 252.146C137.198 253.836 137.726 248.879 138.165 247.903Z" fill="black"/>
<path fill-rule="evenodd" clip-rule="evenodd" d="M119.587 236.631C119.563 237.18 119.538 237.729 119.512 238.275C119.537 237.725 119.562 237.178 119.587 236.631Z" fill="black"/>
<path fill-rule="evenodd" clip-rule="evenodd" d="M185.182 262.13C185.161 262.693 185.141 263.256 185.12 263.816C185.139 263.252 185.16 262.691 185.182 262.13Z" fill="black"/>
<path fill-rule="evenodd" clip-rule="evenodd" d="M150.84 237.935C150.829 238.413 150.817 238.89 150.805 239.365C150.815 238.886 150.828 238.411 150.84 237.935Z" fill="black"/>
<path fill-rule="evenodd" clip-rule="evenodd" d="M367.572 229.715C371.634 229.584 376.166 228.054 380.158 228.541C381.257 228.675 383.786 228.952 382.026 230.583C381.184 231.363 377.152 230.96 375.932 231.219C368.474 232.799 360.007 233.818 352.359 233.687C348.779 233.625 345.172 233.338 341.594 233.149C338.018 232.959 337.666 231.505 341.69 231.042C345.869 230.562 350.157 230.741 354.357 230.736C358.772 230.73 363.165 230.009 367.572 229.715Z" fill="black"/>
<path fill-rule="evenodd" clip-rule="evenodd" d="M376.49 219.919C376.099 221.033 375.756 223.59 374.258 223.758C372.159 223.993 371.812 220.387 371.889 219.068C371.983 217.477 372.555 214.832 374.532 215.384C376.202 215.849 376.369 218.646 376.49 219.919Z" fill="black"/>
<path fill-rule="evenodd" clip-rule="evenodd" d="M363.786 219.104C364.093 217.911 364.244 215.221 365.929 215.129C367.814 215.028 368.352 217.83 368.339 219.173C368.327 220.448 367.856 222.856 366.356 223.15C364.322 223.549 364.14 220.467 363.786 219.104Z" fill="black"/>
<path fill-rule="evenodd" clip-rule="evenodd" d="M342.629 221.244C342.019 222.677 341.615 224.653 339.725 223.675C338.265 222.919 338.061 219.87 338.336 218.474C338.622 217.027 339.227 215.368 340.887 216.019C342.802 216.769 342.609 219.665 342.629 221.244Z" fill="black"/>
<path fill-rule="evenodd" clip-rule="evenodd" d="M358.651 219.919C356.85 225.383 353.565 221.686 354.813 217.608C356.117 213.344 358.485 217.485 358.651 219.919Z" fill="black"/>
<path fill-rule="evenodd" clip-rule="evenodd" d="M349.876 220.19C349.376 221.152 348.844 223.227 347.496 223.009C345.844 222.74 345.79 219.557 345.972 218.372C346.13 217.334 346.596 215.605 347.979 215.627C349.978 215.66 349.844 218.945 349.876 220.19Z" fill="black"/>
<path fill-rule="evenodd" clip-rule="evenodd" d="M385.799 221.239C384.458 224.249 382.614 221.656 383.205 219.518C384.08 216.347 385.723 219.156 385.799 221.239Z" fill="black"/>
<path fill-rule="evenodd" clip-rule="evenodd" d="M352.968 230.739C351.504 230.733 350.039 230.728 348.575 230.723C350.04 230.446 351.506 230.339 352.968 230.739Z" fill="black"/>
<path fill-rule="evenodd" clip-rule="evenodd" d="M382.062 228.528C380.792 228.537 379.523 228.545 378.254 228.553C379.521 228.172 380.791 228.164 382.062 228.528Z" fill="black"/>
<path fill-rule="evenodd" clip-rule="evenodd" d="M367.572 229.715C366.555 229.783 365.539 229.851 364.523 229.919C365.54 229.851 366.556 229.783 367.572 229.715Z" fill="black"/>
<path fill-rule="evenodd" clip-rule="evenodd" d="M342.629 221.244C342.62 220.513 342.61 219.783 342.601 219.055C342.977 219.781 342.951 220.51 342.629 221.244Z" fill="black"/>
<path fill-rule="evenodd" clip-rule="evenodd" d="M350.596 233.671C351.185 233.677 351.774 233.682 352.359 233.687C351.768 233.682 351.182 233.677 350.596 233.671Z" fill="black"/>
<path fill-rule="evenodd" clip-rule="evenodd" d="M340.699 233.149C341.296 233.149 341.893 233.148 342.485 233.149C341.886 233.149 341.293 233.149 340.699 233.149Z" fill="black"/>
<path fill-rule="evenodd" clip-rule="evenodd" d="M345.593 230.802C344.763 230.871 343.933 230.939 343.103 231.007C343.933 230.939 344.763 230.871 345.593 230.802Z" fill="black"/>
<path fill-rule="evenodd" clip-rule="evenodd" d="M356.816 230.73C355.996 230.732 355.177 230.733 354.357 230.735C355.176 230.39 355.995 230.38 356.816 230.73Z" fill="black"/>
<path fill-rule="evenodd" clip-rule="evenodd" d="M349.876 220.19C349.856 219.429 349.836 218.668 349.817 217.908C349.838 218.669 349.857 219.43 349.876 220.19Z" fill="black"/>
<path fill-rule="evenodd" clip-rule="evenodd" d="M338.337 218.474C338.332 219.216 338.328 219.958 338.322 220.697C338.326 219.954 338.331 219.214 338.337 218.474Z" fill="black"/>
<path fill-rule="evenodd" clip-rule="evenodd" d="M372.229 229.438C371.504 229.504 370.78 229.569 370.056 229.635C370.781 229.569 371.505 229.504 372.229 229.438Z" fill="black"/>
<path fill-rule="evenodd" clip-rule="evenodd" d="M385.799 221.239C385.775 220.59 385.752 219.942 385.729 219.294C385.752 219.943 385.775 220.591 385.799 221.239Z" fill="black"/>
<path fill-rule="evenodd" clip-rule="evenodd" d="M354.974 233.693C355.479 233.683 355.983 233.674 356.482 233.665C355.976 233.675 355.475 233.684 354.974 233.693Z" fill="black"/>
<path fill-rule="evenodd" clip-rule="evenodd" d="M376.49 219.919C376.446 219.453 376.401 218.987 376.357 218.523C376.402 218.989 376.446 219.454 376.49 219.919Z" fill="black"/>
<path fill-rule="evenodd" clip-rule="evenodd" d="M358.651 219.919C358.618 219.441 358.586 218.962 358.553 218.485C358.586 218.964 358.618 219.442 358.651 219.919Z" fill="black"/>
<path fill-rule="evenodd" clip-rule="evenodd" d="M98.5724 79.3061C96.589 78.7852 96.2171 75.9956 96.5358 74.2823C96.8973 73.4565 97.2588 72.6312 97.6203 71.8054C97.4788 71.5001 97.3377 71.1948 97.1966 70.8895C97.378 69.189 96.9144 68.4501 98.8671 69.1388C102.495 70.4189 103.074 79.1748 98.5724 79.3061Z" fill="black"/>
<path fill-rule="evenodd" clip-rule="evenodd" d="M127.933 73.9126C129.567 73.7838 132.535 75.6882 130.909 77.5308C129.901 78.6722 126.58 78.1322 125.225 78.3707C123.429 78.6868 121.555 79.1192 122.527 76.4259C123.29 74.3109 126.016 73.8573 127.933 73.9126Z" fill="black"/>
<path fill-rule="evenodd" clip-rule="evenodd" d="M126.214 86.5808C124.554 85.2487 125.295 79.1815 127.821 80.273C130.419 81.3966 127.599 85.7052 126.214 86.5808Z" fill="black"/>
<path fill-rule="evenodd" clip-rule="evenodd" d="M96.5358 74.2822C96.5358 74.9207 96.5354 75.5595 96.5342 76.195C96.188 75.5553 96.1988 74.9186 96.5358 74.2822Z" fill="black"/>
<path fill-rule="evenodd" clip-rule="evenodd" d="M98.5724 79.3061C98.9107 79.2965 99.2494 79.2866 99.5835 79.2778C99.2436 79.2886 98.9082 79.2974 98.5724 79.3061Z" fill="black"/>
<path fill-rule="evenodd" clip-rule="evenodd" d="M303.511 254.036C303.356 256.796 300.395 254.756 300.605 252.909C300.986 249.559 302.879 252.87 303.511 254.036Z" fill="black"/>
</svg>
